<svg width="353" height="87" viewBox="0 0 353 87" fill="none" xmlns="http://www.w3.org/2000/svg">
<rect width="353" height="87" rx="9" fill="#6FA5CC"/>
<path d="M60.4306 39.377C60.3795 39.3116 60.3141 39.2587 60.2395 39.2224C60.1649 39.186 60.083 39.1671 60 39.1671C59.917 39.1671 59.8351 39.186 59.7605 39.2224C59.6858 39.2587 59.6205 39.3116 59.5693 39.377L51.9131 49.0635C51.85 49.1441 51.8108 49.2408 51.8001 49.3426C51.7893 49.4444 51.8075 49.5472 51.8524 49.6392C51.8973 49.7312 51.9672 49.8087 52.0541 49.8628C52.141 49.9169 52.2414 49.9455 52.3437 49.9453H57.3955V66.5156C57.3955 66.8164 57.6416 67.0625 57.9424 67.0625H62.0439C62.3447 67.0625 62.5908 66.8164 62.5908 66.5156V49.9522H67.6562C68.1142 49.9522 68.3672 49.4258 68.0869 49.0703L60.4306 39.377Z" fill="white"/>
<path d="M80.4668 33.0674C77.3359 24.8096 69.3584 18.9375 60.0137 18.9375C50.6689 18.9375 42.6914 24.8027 39.5605 33.0605C33.7021 34.5986 29.375 39.9375 29.375 46.2812C29.375 53.835 35.4932 59.9531 43.04 59.9531H45.7812C46.082 59.9531 46.3281 59.707 46.3281 59.4062V55.3047C46.3281 55.0039 46.082 54.7578 45.7812 54.7578H43.04C40.7363 54.7578 38.5693 53.8418 36.9561 52.1807C35.3496 50.5264 34.4951 48.2979 34.5703 45.9873C34.6318 44.1826 35.2471 42.4873 36.3613 41.0586C37.5029 39.6025 39.1025 38.543 40.8799 38.0713L43.4707 37.3945L44.4209 34.8926C45.0088 33.334 45.8291 31.8779 46.8613 30.5586C47.8804 29.2509 49.0875 28.1014 50.4434 27.1475C53.2529 25.1719 56.5615 24.126 60.0137 24.126C63.4658 24.126 66.7744 25.1719 69.584 27.1475C70.9443 28.1045 72.1475 29.2529 73.166 30.5586C74.1982 31.8779 75.0186 33.3408 75.6064 34.8926L76.5498 37.3877L79.1338 38.0713C82.8389 39.0693 85.4297 42.4395 85.4297 46.2812C85.4297 48.5439 84.5479 50.6768 82.9482 52.2764C82.1638 53.0654 81.2306 53.691 80.2027 54.117C79.1748 54.5429 78.0726 54.7607 76.96 54.7578H74.2188C73.918 54.7578 73.6719 55.0039 73.6719 55.3047V59.4062C73.6719 59.707 73.918 59.9531 74.2188 59.9531H76.96C84.5068 59.9531 90.625 53.835 90.625 46.2812C90.625 39.9443 86.3115 34.6123 80.4668 33.0674Z" fill="white"/>
<path d="M125.404 50.7949C125.404 50.0332 125.275 49.3535 125.018 48.7559C124.76 48.1465 124.332 47.6074 123.734 47.1387C123.148 46.6582 122.375 46.2129 121.414 45.8027C120.453 45.3926 119.27 44.9941 117.863 44.6074C116.574 44.2559 115.408 43.875 114.365 43.4648C113.334 43.043 112.449 42.5625 111.711 42.0234C110.984 41.4844 110.428 40.8457 110.041 40.1074C109.654 39.3574 109.461 38.4727 109.461 37.4531C109.461 36.4688 109.672 35.584 110.094 34.7988C110.516 34.0137 111.107 33.3457 111.869 32.7949C112.643 32.2324 113.545 31.8047 114.576 31.5117C115.619 31.207 116.756 31.0547 117.986 31.0547C119.709 31.0547 121.215 31.3828 122.504 32.0391C123.793 32.6836 124.801 33.5801 125.527 34.7285C126.254 35.8652 126.617 37.1719 126.617 38.6484H125.193C125.193 37.4414 124.895 36.3633 124.297 35.4141C123.711 34.4648 122.879 33.7207 121.801 33.1816C120.734 32.6309 119.463 32.3555 117.986 32.3555C116.463 32.3555 115.168 32.5898 114.102 33.0586C113.047 33.5273 112.244 34.1484 111.693 34.9219C111.154 35.6836 110.885 36.5156 110.885 37.418C110.885 38.0625 111.002 38.666 111.236 39.2285C111.482 39.791 111.881 40.3066 112.432 40.7754C112.994 41.2441 113.75 41.6895 114.699 42.1113C115.66 42.5215 116.855 42.9199 118.285 43.3066C119.598 43.6465 120.775 44.0332 121.818 44.4668C122.873 44.8887 123.775 45.3867 124.525 45.9609C125.275 46.5352 125.85 47.2148 126.248 48C126.646 48.7852 126.846 49.7051 126.846 50.7598C126.846 51.8027 126.623 52.7344 126.178 53.5547C125.732 54.3633 125.111 55.0547 124.314 55.6289C123.529 56.1914 122.604 56.6191 121.537 56.9121C120.482 57.2051 119.346 57.3516 118.127 57.3516C117.014 57.3516 115.895 57.2168 114.77 56.9473C113.656 56.6777 112.637 56.2441 111.711 55.6465C110.785 55.0488 110.041 54.2637 109.479 53.291C108.916 52.3184 108.635 51.1348 108.635 49.7402H110.059C110.059 50.9355 110.305 51.9434 110.797 52.7637C111.289 53.5723 111.934 54.2168 112.73 54.6973C113.527 55.1777 114.395 55.5234 115.332 55.7344C116.281 55.9453 117.213 56.0508 118.127 56.0508C119.557 56.0508 120.816 55.834 121.906 55.4004C123.008 54.9551 123.863 54.3398 124.473 53.5547C125.094 52.7578 125.404 51.8379 125.404 50.7949ZM143.756 52.6055V37.9805H145.162V57H143.773L143.756 52.6055ZM144.002 49.3711L144.916 49.3359C144.916 50.4961 144.77 51.5625 144.477 52.5352C144.195 53.5078 143.75 54.3574 143.141 55.084C142.543 55.7988 141.77 56.3555 140.82 56.7539C139.871 57.1523 138.734 57.3516 137.41 57.3516C136.484 57.3516 135.635 57.2227 134.861 56.9648C134.1 56.6953 133.438 56.2734 132.875 55.6992C132.324 55.125 131.896 54.375 131.592 53.4492C131.299 52.5234 131.152 51.4043 131.152 50.0918V37.9805H132.541V50.127C132.541 51.2285 132.664 52.1602 132.91 52.9219C133.168 53.6836 133.52 54.293 133.965 54.75C134.41 55.207 134.932 55.541 135.529 55.752C136.127 55.9512 136.777 56.0508 137.48 56.0508C139.121 56.0508 140.416 55.7344 141.365 55.1016C142.326 54.4688 143.006 53.6426 143.404 52.623C143.803 51.6035 144.002 50.5195 144.002 49.3711ZM150.945 30H152.352V53.3086L152.299 57H150.945V30ZM165.816 47.2969V47.666C165.816 49.1074 165.652 50.4199 165.324 51.6035C165.008 52.7871 164.539 53.8066 163.918 54.6621C163.309 55.5176 162.559 56.1797 161.668 56.6484C160.777 57.1172 159.764 57.3516 158.627 57.3516C157.537 57.3516 156.559 57.1875 155.691 56.8594C154.836 56.5312 154.098 56.0801 153.477 55.5059C152.855 54.9199 152.352 54.2461 151.965 53.4844C151.59 52.7109 151.326 51.8848 151.174 51.0059V44.4492C151.373 43.4531 151.672 42.5449 152.07 41.7246C152.469 40.8926 152.973 40.1719 153.582 39.5625C154.191 38.9414 154.912 38.4668 155.744 38.1387C156.588 37.7988 157.537 37.6289 158.592 37.6289C159.74 37.6289 160.76 37.8574 161.65 38.3145C162.553 38.7598 163.309 39.4043 163.918 40.248C164.539 41.0801 165.008 42.0938 165.324 43.2891C165.652 44.4727 165.816 45.8086 165.816 47.2969ZM164.393 47.666V47.2969C164.393 46.1016 164.275 44.9941 164.041 43.9746C163.807 42.9551 163.443 42.0703 162.951 41.3203C162.471 40.5703 161.855 39.9844 161.105 39.5625C160.355 39.1406 159.471 38.9297 158.451 38.9297C157.326 38.9297 156.377 39.1172 155.604 39.4922C154.842 39.8555 154.215 40.3301 153.723 40.916C153.242 41.502 152.861 42.1348 152.58 42.8145C152.311 43.4824 152.111 44.1152 151.982 44.7129V50.918C152.193 51.8438 152.562 52.6992 153.09 53.4844C153.629 54.2578 154.344 54.8789 155.234 55.3477C156.137 55.8164 157.221 56.0508 158.486 56.0508C159.494 56.0508 160.367 55.8398 161.105 55.418C161.855 54.9961 162.471 54.4102 162.951 53.6602C163.432 52.9102 163.789 52.0254 164.023 51.0059C164.27 49.9863 164.393 48.873 164.393 47.666ZM172.443 37.9805V57H171.037V37.9805H172.443ZM170.598 32.2148C170.598 31.8984 170.703 31.6289 170.914 31.4062C171.137 31.1719 171.418 31.0547 171.758 31.0547C172.086 31.0547 172.361 31.1719 172.584 31.4062C172.807 31.6289 172.918 31.8984 172.918 32.2148C172.918 32.5312 172.807 32.8008 172.584 33.0234C172.361 33.2344 172.086 33.3398 171.758 33.3398C171.418 33.3398 171.137 33.2344 170.914 33.0234C170.703 32.8008 170.598 32.5312 170.598 32.2148ZM179.896 41.2148V57H178.508V37.9805H179.879L179.896 41.2148ZM187.139 37.8398L187.051 39.1055C186.84 39.0703 186.629 39.041 186.418 39.0176C186.207 38.9941 185.984 38.9824 185.75 38.9824C184.742 38.9824 183.857 39.1816 183.096 39.5801C182.346 39.9785 181.713 40.5234 181.197 41.2148C180.693 41.9062 180.312 42.709 180.055 43.623C179.797 44.5371 179.662 45.5156 179.65 46.5586L178.965 46.6992C178.965 45.3984 179.1 44.1973 179.369 43.0957C179.65 41.9941 180.072 41.0332 180.635 40.2129C181.197 39.3926 181.906 38.7598 182.762 38.3145C183.617 37.8574 184.625 37.6289 185.785 37.6289C186.066 37.6289 186.324 37.6523 186.559 37.6992C186.793 37.7344 186.986 37.7812 187.139 37.8398ZM200.533 42.0059V57H199.127V37.9805H200.498L200.533 42.0059ZM200.305 46.0312L199.602 45.2227C199.695 44.2148 199.93 43.2539 200.305 42.3398C200.691 41.4258 201.201 40.6172 201.834 39.9141C202.479 39.2109 203.234 38.6543 204.102 38.2441C204.98 37.834 205.959 37.6289 207.037 37.6289C207.986 37.6289 208.836 37.7578 209.586 38.0156C210.348 38.2617 210.992 38.6543 211.52 39.1934C212.047 39.7207 212.451 40.4121 212.732 41.2676C213.014 42.123 213.154 43.1484 213.154 44.3438V57H211.748V44.3789C211.748 42.9492 211.537 41.8418 211.115 41.0566C210.693 40.2715 210.107 39.7207 209.357 39.4043C208.607 39.0762 207.746 38.9121 206.773 38.9121C205.625 38.9121 204.646 39.1641 203.838 39.668C203.029 40.1602 202.367 40.7871 201.852 41.5488C201.348 42.2988 200.973 43.0781 200.727 43.8867C200.48 44.6953 200.34 45.4102 200.305 46.0312ZM213.137 44.4668L212.188 44.1328C212.281 43.2773 212.521 42.4629 212.908 41.6895C213.307 40.9043 213.828 40.2129 214.473 39.6152C215.117 39.0059 215.873 38.5254 216.74 38.1738C217.619 37.8105 218.592 37.6289 219.658 37.6289C220.631 37.6289 221.498 37.7637 222.26 38.0332C223.033 38.291 223.678 38.707 224.193 39.2812C224.721 39.8438 225.125 40.5703 225.406 41.4609C225.688 42.3398 225.828 43.4062 225.828 44.6602V57H224.422V44.6426C224.422 43.1426 224.211 41.9766 223.789 41.1445C223.367 40.3125 222.781 39.7324 222.031 39.4043C221.281 39.0645 220.414 38.9004 219.43 38.9121C218.387 38.9238 217.479 39.1172 216.705 39.4922C215.932 39.8672 215.287 40.3418 214.771 40.916C214.256 41.4902 213.863 42.0938 213.594 42.7266C213.324 43.3477 213.172 43.9277 213.137 44.4668ZM243.213 53.502V43.6758C243.213 42.6797 243.002 41.8242 242.58 41.1094C242.158 40.3945 241.543 39.8496 240.734 39.4746C239.926 39.0879 238.936 38.8945 237.764 38.8945C236.674 38.8945 235.695 39.0879 234.828 39.4746C233.973 39.8496 233.299 40.3652 232.807 41.0215C232.314 41.6777 232.068 42.4102 232.068 43.2188L230.662 43.2012C230.662 42.4746 230.832 41.7773 231.172 41.1094C231.523 40.4414 232.016 39.8496 232.648 39.334C233.293 38.8066 234.049 38.3906 234.916 38.0859C235.795 37.7812 236.756 37.6289 237.799 37.6289C239.135 37.6289 240.312 37.8574 241.332 38.3145C242.363 38.7598 243.166 39.4336 243.74 40.3359C244.314 41.2383 244.602 42.3633 244.602 43.7109V53.0977C244.602 53.7773 244.648 54.4629 244.742 55.1543C244.836 55.8457 244.965 56.4023 245.129 56.8242V57H243.6C243.471 56.5547 243.371 56.0098 243.301 55.3652C243.242 54.7207 243.213 54.0996 243.213 53.502ZM243.67 46.207L243.705 47.4199H239.064C237.893 47.4199 236.844 47.5312 235.918 47.7539C234.992 47.9766 234.207 48.293 233.562 48.7031C232.918 49.1133 232.426 49.5996 232.086 50.1621C231.746 50.7246 231.576 51.3574 231.576 52.0605C231.576 52.7871 231.77 53.4551 232.156 54.0645C232.543 54.6738 233.088 55.1602 233.791 55.5234C234.494 55.875 235.309 56.0508 236.234 56.0508C237.5 56.0508 238.619 55.834 239.592 55.4004C240.576 54.9551 241.402 54.3574 242.07 53.6074C242.738 52.8457 243.225 51.9668 243.529 50.9707L244.145 51.9902C243.945 52.6113 243.635 53.2383 243.213 53.8711C242.791 54.5039 242.246 55.084 241.578 55.6113C240.91 56.127 240.125 56.5488 239.223 56.877C238.32 57.1934 237.295 57.3516 236.146 57.3516C234.939 57.3516 233.885 57.1289 232.982 56.6836C232.092 56.2266 231.4 55.6055 230.908 54.8203C230.416 54.0234 230.17 53.1152 230.17 52.0957C230.17 51.2168 230.369 50.4141 230.768 49.6875C231.166 48.9609 231.74 48.3398 232.49 47.8242C233.252 47.2969 234.172 46.8984 235.25 46.6289C236.34 46.3477 237.564 46.207 238.924 46.207H243.67ZM257.293 37.9805V39.2461H248.188V37.9805H257.293ZM251.703 32.9531H253.109V52.4121C253.109 53.4316 253.232 54.2051 253.479 54.7324C253.736 55.248 254.07 55.5996 254.48 55.7871C254.902 55.9629 255.354 56.0508 255.834 56.0508C256.174 56.0508 256.484 56.0332 256.766 55.998C257.059 55.9629 257.352 55.9219 257.645 55.875L257.768 57.1055C257.51 57.1875 257.176 57.2461 256.766 57.2812C256.355 57.3281 255.992 57.3516 255.676 57.3516C254.879 57.3516 254.182 57.2051 253.584 56.9121C252.986 56.6191 252.523 56.1152 252.195 55.4004C251.867 54.6738 251.703 53.6777 251.703 52.4121V32.9531ZM269.053 57.3516C267.857 57.3516 266.75 57.123 265.73 56.666C264.711 56.1973 263.82 55.5469 263.059 54.7148C262.297 53.8711 261.699 52.875 261.266 51.7266C260.844 50.5781 260.633 49.3184 260.633 47.9473V47.1738C260.633 45.7559 260.844 44.4668 261.266 43.3066C261.699 42.1348 262.285 41.127 263.023 40.2832C263.762 39.4277 264.611 38.7715 265.572 38.3145C266.545 37.8574 267.582 37.6289 268.684 37.6289C269.797 37.6289 270.805 37.834 271.707 38.2441C272.609 38.6543 273.383 39.2285 274.027 39.9668C274.672 40.7051 275.164 41.584 275.504 42.6035C275.844 43.623 276.014 44.748 276.014 45.9785V47.1562H261.512V45.873H274.625V45.6445C274.613 44.4492 274.367 43.3418 273.887 42.3223C273.418 41.3027 272.744 40.4824 271.865 39.8613C270.986 39.2285 269.926 38.9121 268.684 38.9121C267.688 38.9121 266.779 39.123 265.959 39.5449C265.15 39.9668 264.453 40.5527 263.867 41.3027C263.281 42.041 262.83 42.9141 262.514 43.9219C262.197 44.918 262.039 46.002 262.039 47.1738V47.9473C262.039 49.0723 262.215 50.127 262.566 51.1113C262.918 52.0957 263.41 52.9629 264.043 53.7129C264.676 54.4512 265.42 55.0312 266.275 55.4531C267.131 55.875 268.068 56.0859 269.088 56.0859C270.189 56.0859 271.197 55.8926 272.111 55.5059C273.025 55.1191 273.857 54.4395 274.607 53.4668L275.521 54.1523C275.1 54.7617 274.59 55.3066 273.992 55.7871C273.395 56.2676 272.686 56.6484 271.865 56.9297C271.057 57.2109 270.119 57.3516 269.053 57.3516ZM281.744 41.2148V57H280.355V37.9805H281.727L281.744 41.2148ZM288.986 37.8398L288.898 39.1055C288.688 39.0703 288.477 39.041 288.266 39.0176C288.055 38.9941 287.832 38.9824 287.598 38.9824C286.59 38.9824 285.705 39.1816 284.943 39.5801C284.193 39.9785 283.561 40.5234 283.045 41.2148C282.541 41.9062 282.16 42.709 281.902 43.623C281.645 44.5371 281.51 45.5156 281.498 46.5586L280.812 46.6992C280.812 45.3984 280.947 44.1973 281.217 43.0957C281.498 41.9941 281.92 41.0332 282.482 40.2129C283.045 39.3926 283.754 38.7598 284.609 38.3145C285.465 37.8574 286.473 37.6289 287.633 37.6289C287.914 37.6289 288.172 37.6523 288.406 37.6992C288.641 37.7344 288.834 37.7812 288.986 37.8398ZM294.084 37.9805V57H292.678V37.9805H294.084ZM292.238 32.2148C292.238 31.8984 292.344 31.6289 292.555 31.4062C292.777 31.1719 293.059 31.0547 293.398 31.0547C293.727 31.0547 294.002 31.1719 294.225 31.4062C294.447 31.6289 294.559 31.8984 294.559 32.2148C294.559 32.5312 294.447 32.8008 294.225 33.0234C294.002 33.2344 293.727 33.3398 293.398 33.3398C293.059 33.3398 292.777 33.2344 292.555 33.0234C292.344 32.8008 292.238 32.5312 292.238 32.2148ZM311.943 53.502V43.6758C311.943 42.6797 311.732 41.8242 311.311 41.1094C310.889 40.3945 310.273 39.8496 309.465 39.4746C308.656 39.0879 307.666 38.8945 306.494 38.8945C305.404 38.8945 304.426 39.0879 303.559 39.4746C302.703 39.8496 302.029 40.3652 301.537 41.0215C301.045 41.6777 300.799 42.4102 300.799 43.2188L299.393 43.2012C299.393 42.4746 299.562 41.7773 299.902 41.1094C300.254 40.4414 300.746 39.8496 301.379 39.334C302.023 38.8066 302.779 38.3906 303.646 38.0859C304.525 37.7812 305.486 37.6289 306.529 37.6289C307.865 37.6289 309.043 37.8574 310.062 38.3145C311.094 38.7598 311.896 39.4336 312.471 40.3359C313.045 41.2383 313.332 42.3633 313.332 43.7109V53.0977C313.332 53.7773 313.379 54.4629 313.473 55.1543C313.566 55.8457 313.695 56.4023 313.859 56.8242V57H312.33C312.201 56.5547 312.102 56.0098 312.031 55.3652C311.973 54.7207 311.943 54.0996 311.943 53.502ZM312.4 46.207L312.436 47.4199H307.795C306.623 47.4199 305.574 47.5312 304.648 47.7539C303.723 47.9766 302.938 48.293 302.293 48.7031C301.648 49.1133 301.156 49.5996 300.816 50.1621C300.477 50.7246 300.307 51.3574 300.307 52.0605C300.307 52.7871 300.5 53.4551 300.887 54.0645C301.273 54.6738 301.818 55.1602 302.521 55.5234C303.225 55.875 304.039 56.0508 304.965 56.0508C306.23 56.0508 307.35 55.834 308.322 55.4004C309.307 54.9551 310.133 54.3574 310.801 53.6074C311.469 52.8457 311.955 51.9668 312.26 50.9707L312.875 51.9902C312.676 52.6113 312.365 53.2383 311.943 53.8711C311.521 54.5039 310.977 55.084 310.309 55.6113C309.641 56.127 308.855 56.5488 307.953 56.877C307.051 57.1934 306.025 57.3516 304.877 57.3516C303.67 57.3516 302.615 57.1289 301.713 56.6836C300.822 56.2266 300.131 55.6055 299.639 54.8203C299.146 54.0234 298.9 53.1152 298.9 52.0957C298.9 51.2168 299.1 50.4141 299.498 49.6875C299.896 48.9609 300.471 48.3398 301.221 47.8242C301.982 47.2969 302.902 46.8984 303.98 46.6289C305.07 46.3477 306.295 46.207 307.654 46.207H312.4ZM320.908 30V57H319.502V30H320.908Z" fill="white"/>
</svg>
